<svg
 xmlns="http://www.w3.org/2000/svg"
 xmlns:xlink="http://www.w3.org/1999/xlink"
 width="193px" height="142px">
<defs>
<linearGradient id="PSgrad_0" x1="0%" x2="29.237%" y1="95.63%" y2="0%">
  <stop offset="0%" stop-color="rgb(241,241,241)" stop-opacity="0" />
  <stop offset="100%" stop-color="rgb(241,241,241)" stop-opacity="0.08" />
</linearGradient>

</defs>
<path fill-rule="evenodd"  fill="rgb(245, 245, 245)"
 d="M190.000,141.125 L176.000,141.125 C174.343,141.125 173.000,139.782 173.000,138.125 L173.000,3.219 C173.000,1.562 174.343,0.219 176.000,0.219 L190.000,0.219 C191.657,0.219 193.000,1.562 193.000,3.219 L193.000,138.125 C193.000,139.782 191.657,141.125 190.000,141.125 ZM165.000,141.125 L154.000,141.125 C152.343,141.125 151.000,139.782 151.000,138.125 L151.000,18.219 C151.000,16.562 152.343,15.219 154.000,15.219 L165.000,15.219 C166.657,15.219 168.000,16.562 168.000,18.219 L168.000,138.125 C168.000,139.782 166.657,141.125 165.000,141.125 ZM143.000,141.125 L135.000,141.125 C133.343,141.125 132.000,139.782 132.000,138.125 L132.000,10.219 C132.000,8.562 133.343,7.219 135.000,7.219 L143.000,7.219 C144.657,7.219 146.000,8.562 146.000,10.219 L146.000,138.125 C146.000,139.782 144.657,141.125 143.000,141.125 ZM124.000,141.125 L110.000,141.125 C108.343,141.125 107.000,139.782 107.000,138.125 L107.000,3.219 C107.000,1.562 108.343,0.219 110.000,0.219 L124.000,0.219 C125.657,0.219 127.000,1.562 127.000,3.219 L127.000,138.125 C127.000,139.782 125.657,141.125 124.000,141.125 ZM99.000,141.125 L88.000,141.125 C86.343,141.125 85.000,139.782 85.000,138.125 L85.000,18.219 C85.000,16.562 86.343,15.219 88.000,15.219 L99.000,15.219 C100.657,15.219 102.000,16.562 102.000,18.219 L102.000,138.125 C102.000,139.782 100.657,141.125 99.000,141.125 ZM77.000,141.125 L69.000,141.125 C67.343,141.125 66.000,139.782 66.000,138.125 L66.000,10.219 C66.000,8.562 67.343,7.219 69.000,7.219 L77.000,7.219 C78.657,7.219 80.000,8.562 80.000,10.219 L80.000,138.125 C80.000,139.782 78.657,141.125 77.000,141.125 ZM58.000,141.125 L44.000,141.125 C42.343,141.125 41.000,139.782 41.000,138.125 L41.000,3.219 C41.000,1.562 42.343,0.219 44.000,0.219 L58.000,0.219 C59.657,0.219 61.000,1.562 61.000,3.219 L61.000,138.125 C61.000,139.782 59.657,141.125 58.000,141.125 ZM33.000,141.125 L22.000,141.125 C20.343,141.125 19.000,139.782 19.000,138.125 L19.000,18.219 C19.000,16.562 20.343,15.219 22.000,15.219 L33.000,15.219 C34.657,15.219 36.000,16.562 36.000,18.219 L36.000,138.125 C36.000,139.782 34.657,141.125 33.000,141.125 ZM11.000,141.125 L3.000,141.125 C1.343,141.125 -0.000,139.782 -0.000,138.125 L-0.000,10.219 C-0.000,8.562 1.343,7.219 3.000,7.219 L11.000,7.219 C12.657,7.219 14.000,8.562 14.000,10.219 L14.000,138.125 C14.000,139.782 12.657,141.125 11.000,141.125 Z"/>
<path fill="url(#PSgrad_0)"
 d="M190.000,141.125 L176.000,141.125 C174.343,141.125 173.000,139.782 173.000,138.125 L173.000,3.219 C173.000,1.562 174.343,0.219 176.000,0.219 L190.000,0.219 C191.657,0.219 193.000,1.562 193.000,3.219 L193.000,138.125 C193.000,139.782 191.657,141.125 190.000,141.125 ZM165.000,141.125 L154.000,141.125 C152.343,141.125 151.000,139.782 151.000,138.125 L151.000,18.219 C151.000,16.562 152.343,15.219 154.000,15.219 L165.000,15.219 C166.657,15.219 168.000,16.562 168.000,18.219 L168.000,138.125 C168.000,139.782 166.657,141.125 165.000,141.125 ZM143.000,141.125 L135.000,141.125 C133.343,141.125 132.000,139.782 132.000,138.125 L132.000,10.219 C132.000,8.562 133.343,7.219 135.000,7.219 L143.000,7.219 C144.657,7.219 146.000,8.562 146.000,10.219 L146.000,138.125 C146.000,139.782 144.657,141.125 143.000,141.125 ZM124.000,141.125 L110.000,141.125 C108.343,141.125 107.000,139.782 107.000,138.125 L107.000,3.219 C107.000,1.562 108.343,0.219 110.000,0.219 L124.000,0.219 C125.657,0.219 127.000,1.562 127.000,3.219 L127.000,138.125 C127.000,139.782 125.657,141.125 124.000,141.125 ZM99.000,141.125 L88.000,141.125 C86.343,141.125 85.000,139.782 85.000,138.125 L85.000,18.219 C85.000,16.562 86.343,15.219 88.000,15.219 L99.000,15.219 C100.657,15.219 102.000,16.562 102.000,18.219 L102.000,138.125 C102.000,139.782 100.657,141.125 99.000,141.125 ZM77.000,141.125 L69.000,141.125 C67.343,141.125 66.000,139.782 66.000,138.125 L66.000,10.219 C66.000,8.562 67.343,7.219 69.000,7.219 L77.000,7.219 C78.657,7.219 80.000,8.562 80.000,10.219 L80.000,138.125 C80.000,139.782 78.657,141.125 77.000,141.125 ZM58.000,141.125 L44.000,141.125 C42.343,141.125 41.000,139.782 41.000,138.125 L41.000,3.219 C41.000,1.562 42.343,0.219 44.000,0.219 L58.000,0.219 C59.657,0.219 61.000,1.562 61.000,3.219 L61.000,138.125 C61.000,139.782 59.657,141.125 58.000,141.125 ZM33.000,141.125 L22.000,141.125 C20.343,141.125 19.000,139.782 19.000,138.125 L19.000,18.219 C19.000,16.562 20.343,15.219 22.000,15.219 L33.000,15.219 C34.657,15.219 36.000,16.562 36.000,18.219 L36.000,138.125 C36.000,139.782 34.657,141.125 33.000,141.125 ZM11.000,141.125 L3.000,141.125 C1.343,141.125 -0.000,139.782 -0.000,138.125 L-0.000,10.219 C-0.000,8.562 1.343,7.219 3.000,7.219 L11.000,7.219 C12.657,7.219 14.000,8.562 14.000,10.219 L14.000,138.125 C14.000,139.782 12.657,141.125 11.000,141.125 Z"/>
</svg>
