<svg
 xmlns="http://www.w3.org/2000/svg"
 xmlns:xlink="http://www.w3.org/1999/xlink"
 width="75px" height="20px">
<path fill-rule="evenodd"  fill="rgb(0, 16, 38)"
 d="M72.679,16.114 C72.321,16.114 71.582,16.140 70.462,16.192 L70.462,15.772 C70.651,15.772 70.800,15.736 70.911,15.665 C71.022,15.593 71.077,15.502 71.077,15.391 C71.077,15.300 71.038,15.199 70.960,15.088 L68.665,11.729 C68.424,11.391 68.203,11.163 68.001,11.045 C67.799,10.928 67.519,10.863 67.161,10.850 L67.161,14.336 C67.161,14.708 67.205,14.997 67.293,15.206 C67.381,15.414 67.518,15.561 67.703,15.645 C67.889,15.730 68.148,15.772 68.480,15.772 L68.480,16.192 C67.360,16.140 66.621,16.114 66.263,16.114 C65.872,16.114 65.065,16.140 63.841,16.192 L63.841,15.772 C64.218,15.772 64.516,15.730 64.734,15.645 C64.953,15.561 65.112,15.414 65.213,15.206 C65.314,14.997 65.364,14.708 65.364,14.336 L65.364,2.911 C65.364,2.292 65.252,1.845 65.027,1.568 C64.803,1.291 64.407,1.153 63.841,1.153 L63.841,0.733 C64.264,0.772 64.677,0.792 65.081,0.792 C65.941,0.792 66.634,0.697 67.161,0.508 L67.161,10.440 C67.552,10.388 67.877,10.298 68.138,10.171 C68.398,10.045 68.646,9.857 68.880,9.610 L70.364,8.077 C70.788,7.634 70.999,7.266 70.999,6.973 C70.999,6.739 70.866,6.566 70.599,6.456 C70.332,6.345 69.974,6.290 69.525,6.290 L69.525,5.889 C70.449,5.941 71.201,5.967 71.780,5.967 C72.405,5.967 72.985,5.941 73.519,5.889 L73.519,6.290 C72.868,6.348 72.269,6.661 71.722,7.227 L69.290,9.786 L72.903,14.727 C73.151,15.066 73.375,15.315 73.577,15.474 C73.779,15.634 74.020,15.733 74.300,15.772 L74.300,16.192 C73.493,16.140 72.952,16.114 72.679,16.114 ZM60.096,15.904 C59.416,16.285 58.636,16.475 57.757,16.475 C56.878,16.475 56.099,16.285 55.418,15.904 C54.738,15.523 54.201,14.929 53.807,14.122 C53.413,13.314 53.216,12.292 53.216,11.055 C53.216,9.818 53.413,8.795 53.807,7.984 C54.201,7.173 54.738,6.576 55.418,6.192 C56.099,5.808 56.878,5.616 57.757,5.616 C58.636,5.616 59.416,5.808 60.096,6.192 C60.776,6.576 61.314,7.173 61.708,7.984 C62.101,8.795 62.298,9.818 62.298,11.055 C62.298,12.292 62.101,13.314 61.708,14.122 C61.314,14.929 60.776,15.523 60.096,15.904 ZM59.657,7.247 C59.191,6.426 58.558,6.016 57.757,6.016 C56.957,6.016 56.323,6.426 55.858,7.247 C55.392,8.067 55.160,9.336 55.160,11.055 C55.160,12.768 55.392,14.032 55.858,14.849 C56.323,15.666 56.957,16.075 57.757,16.075 C58.558,16.075 59.191,15.666 59.657,14.849 C60.122,14.032 60.355,12.768 60.355,11.055 C60.355,9.336 60.122,8.067 59.657,7.247 ZM48.739,15.904 C48.059,16.285 47.279,16.475 46.400,16.475 C45.521,16.475 44.742,16.285 44.061,15.904 C43.381,15.523 42.844,14.929 42.450,14.122 C42.056,13.314 41.859,12.292 41.859,11.055 C41.859,9.818 42.056,8.795 42.450,7.984 C42.844,7.173 43.381,6.576 44.061,6.192 C44.742,5.808 45.521,5.616 46.400,5.616 C47.279,5.616 48.059,5.808 48.739,6.192 C49.419,6.576 49.957,7.173 50.351,7.984 C50.744,8.795 50.941,9.818 50.941,11.055 C50.941,12.292 50.744,13.314 50.351,14.122 C49.957,14.929 49.419,15.523 48.739,15.904 ZM48.300,7.247 C47.834,6.426 47.201,6.016 46.400,6.016 C45.600,6.016 44.966,6.426 44.501,7.247 C44.035,8.067 43.803,9.336 43.803,11.055 C43.803,12.768 44.035,14.032 44.501,14.849 C44.966,15.666 45.600,16.075 46.400,16.075 C47.201,16.075 47.834,15.666 48.300,14.849 C48.765,14.032 48.998,12.768 48.998,11.055 C48.998,9.336 48.765,8.067 48.300,7.247 ZM37.577,15.635 C36.891,16.195 36.033,16.475 35.004,16.475 C34.496,16.475 34.036,16.376 33.622,16.177 C33.209,15.979 32.888,15.717 32.660,15.391 L32.660,17.950 C32.660,18.490 32.820,18.866 33.139,19.078 C33.458,19.289 33.940,19.395 34.584,19.395 L34.584,19.815 C34.415,19.808 34.036,19.792 33.447,19.766 C32.857,19.740 32.276,19.727 31.703,19.727 C31.280,19.727 30.844,19.740 30.395,19.766 C29.946,19.792 29.662,19.808 29.545,19.815 L29.545,19.395 C30.034,19.395 30.375,19.306 30.571,19.127 C30.766,18.947 30.864,18.624 30.864,18.155 L30.864,8.077 C30.864,7.458 30.751,7.009 30.527,6.729 C30.302,6.449 29.907,6.309 29.340,6.309 L29.340,5.889 C29.757,5.928 30.170,5.948 30.580,5.948 C31.427,5.948 32.120,5.857 32.660,5.674 L32.660,7.784 C32.960,7.094 33.390,6.560 33.950,6.182 C34.509,5.805 35.147,5.616 35.864,5.616 C36.573,5.616 37.210,5.808 37.773,6.192 C38.336,6.576 38.779,7.143 39.101,7.891 C39.423,8.640 39.584,9.535 39.584,10.577 C39.584,11.599 39.421,12.558 39.096,13.453 C38.770,14.348 38.264,15.075 37.577,15.635 ZM35.317,6.211 C34.711,6.211 34.169,6.428 33.691,6.861 C33.212,7.294 32.869,7.920 32.660,8.741 L32.660,14.727 C32.856,15.124 33.132,15.438 33.491,15.670 C33.849,15.901 34.278,16.016 34.780,16.016 C36.687,16.016 37.641,14.294 37.641,10.850 C37.641,7.758 36.866,6.211 35.317,6.211 ZM25.854,16.148 C25.333,16.366 24.764,16.475 24.145,16.475 C23.553,16.475 23.025,16.381 22.563,16.192 C22.303,16.062 22.029,15.883 21.743,15.655 C21.691,15.603 21.629,15.577 21.557,15.577 C21.362,15.577 21.225,15.827 21.147,16.329 L20.688,16.329 C20.740,15.567 20.766,14.236 20.766,12.335 L21.225,12.335 C21.323,13.161 21.463,13.842 21.645,14.376 C21.827,14.909 22.107,15.326 22.485,15.626 C22.863,15.925 23.370,16.075 24.009,16.075 C24.301,16.075 24.583,16.011 24.853,15.884 C25.123,15.757 25.346,15.552 25.522,15.269 C25.698,14.986 25.786,14.620 25.786,14.170 C25.786,13.806 25.693,13.479 25.508,13.189 C25.322,12.899 25.079,12.639 24.780,12.408 C24.480,12.177 24.061,11.892 23.520,11.553 C22.863,11.137 22.360,10.795 22.011,10.528 C21.663,10.261 21.368,9.936 21.128,9.551 C20.887,9.167 20.766,8.715 20.766,8.194 C20.766,7.628 20.900,7.151 21.167,6.763 C21.434,6.376 21.790,6.088 22.236,5.899 C22.682,5.710 23.178,5.616 23.725,5.616 C24.194,5.616 24.616,5.691 24.990,5.840 C25.364,5.990 25.669,6.159 25.903,6.348 C26.046,6.459 26.163,6.514 26.255,6.514 C26.489,6.514 26.639,6.221 26.704,5.635 L27.163,5.635 C27.111,6.286 27.085,7.419 27.085,9.034 L26.626,9.034 C26.482,8.155 26.199,7.429 25.776,6.856 C25.353,6.283 24.728,5.997 23.901,5.997 C23.419,5.997 23.025,6.132 22.719,6.402 C22.413,6.672 22.260,7.048 22.260,7.530 C22.260,7.992 22.418,8.378 22.734,8.687 C23.050,8.996 23.431,9.291 23.877,9.571 C24.323,9.851 24.640,10.053 24.829,10.176 C25.441,10.574 25.934,10.927 26.308,11.236 C26.683,11.545 26.985,11.900 27.217,12.300 C27.448,12.701 27.563,13.158 27.563,13.672 C27.563,14.265 27.408,14.771 27.099,15.191 C26.790,15.611 26.375,15.930 25.854,16.148 ZM14.243,16.192 L14.243,15.772 C14.575,15.772 14.834,15.730 15.020,15.645 C15.205,15.561 15.342,15.414 15.430,15.206 C15.518,14.997 15.562,14.708 15.562,14.336 L15.562,8.555 C15.562,8.074 15.524,7.670 15.449,7.344 C15.374,7.019 15.218,6.755 14.981,6.553 C14.743,6.352 14.396,6.251 13.941,6.251 C13.394,6.251 12.907,6.410 12.481,6.729 C12.054,7.048 11.724,7.486 11.489,8.043 C11.255,8.599 11.138,9.216 11.138,9.893 L11.138,14.336 C11.138,14.708 11.182,14.997 11.270,15.206 C11.358,15.414 11.496,15.561 11.685,15.645 C11.873,15.730 12.134,15.772 12.466,15.772 L12.466,16.192 C11.346,16.140 10.597,16.114 10.220,16.114 C9.842,16.114 9.041,16.140 7.818,16.192 L7.818,15.772 C8.195,15.772 8.493,15.730 8.711,15.645 C8.929,15.561 9.089,15.414 9.190,15.206 C9.290,14.997 9.341,14.708 9.341,14.336 L9.341,8.077 C9.341,7.458 9.229,7.009 9.004,6.729 C8.779,6.449 8.384,6.309 7.818,6.309 L7.818,5.889 C8.234,5.928 8.648,5.948 9.058,5.948 C9.904,5.948 10.597,5.857 11.138,5.674 L11.138,8.028 C11.470,7.182 11.934,6.568 12.529,6.187 C13.125,5.806 13.797,5.616 14.546,5.616 C15.477,5.616 16.183,5.866 16.665,6.368 C16.913,6.641 17.090,6.978 17.197,7.378 C17.305,7.779 17.359,8.318 17.359,8.995 L17.359,14.336 C17.359,14.708 17.409,14.997 17.510,15.206 C17.611,15.414 17.770,15.561 17.988,15.645 C18.206,15.730 18.504,15.772 18.882,15.772 L18.882,16.192 C17.658,16.140 16.857,16.114 16.480,16.114 C16.109,16.114 15.363,16.140 14.243,16.192 ZM0.904,16.192 L0.904,15.792 C1.386,15.772 1.735,15.720 1.954,15.635 C2.172,15.551 2.321,15.395 2.403,15.167 C2.484,14.939 2.525,14.574 2.525,14.073 L2.525,4.151 C2.525,3.650 2.484,3.285 2.403,3.057 C2.321,2.829 2.172,2.673 1.954,2.588 C1.735,2.504 1.386,2.452 0.904,2.432 L0.904,2.032 C1.457,2.071 2.310,2.090 3.462,2.090 C4.543,2.090 5.389,2.071 6.001,2.032 L6.001,2.432 C5.520,2.452 5.170,2.504 4.952,2.588 C4.733,2.673 4.584,2.829 4.502,3.057 C4.421,3.285 4.380,3.650 4.380,4.151 L4.380,14.073 C4.380,14.574 4.421,14.939 4.502,15.167 C4.584,15.395 4.733,15.551 4.952,15.635 C5.170,15.720 5.520,15.772 6.001,15.792 L6.001,16.192 C5.389,16.153 4.543,16.133 3.462,16.133 C2.316,16.133 1.464,16.153 0.904,16.192 Z"/>
</svg>
