<svg xmlns="http://www.w3.org/2000/svg" width="100" height="25" viewBox="0 0 104.004 26.001">
  <metadata><?xpacket begin="﻿" id="W5M0MpCehiHzreSzNTczkc9d"?>
<x:xmpmeta xmlns:x="adobe:ns:meta/" x:xmptk="Adobe XMP Core 5.6-c138 79.159824, 2016/09/14-01:09:01        ">
   <rdf:RDF xmlns:rdf="http://www.w3.org/1999/02/22-rdf-syntax-ns#">
      <rdf:Description rdf:about=""/>
   </rdf:RDF>
</x:xmpmeta>
                                                                                                    
                                                                                                    
                                                                                                    
                                                                                                    
                                                                                                    
                                                                                                    
                                                                                                    
                                                                                                    
                                                                                                    
                                                                                                    
                                                                                                    
                                                                                                    
                                                                                                    
                                                                                                    
                                                                                                    
                                                                                                    
                                                                                                    
                                                                                                    
                                                                                                    
                                                                                                    
                           
<?xpacket end="w"?></metadata>
<defs>
    <style>
      .cls-1 {
        fill: #001026;
        fill-rule: evenodd;
      }
    </style>
  </defs>
  <path id="Inspook_copy" data-name="Inspook copy" class="cls-1" d="M445.335,82.076q-1.458.081-4.077,0.081-2.89,0-4.266-.081v0.54a4.691,4.691,0,0,1,1.309.216,0.934,0.934,0,0,1,.567.621,5.294,5.294,0,0,1,.149,1.485V98.33a5.291,5.291,0,0,1-.149,1.485,0.934,0.934,0,0,1-.567.621,4.684,4.684,0,0,1-1.309.216v0.54q1.377-.081,4.266-0.081,2.618,0,4.077.081v-0.54a4.615,4.615,0,0,1-1.323-.216,0.938,0.938,0,0,1-.554-0.621,5.3,5.3,0,0,1-.148-1.485V84.938a5.3,5.3,0,0,1,.148-1.485,0.938,0.938,0,0,1,.554-0.621,4.622,4.622,0,0,1,1.323-.216v-0.54Zm12.123,4.779a4.475,4.475,0,0,0-4.428,2.511v-2.43a16.961,16.961,0,0,1-3.942.378c-0.54,0-1.1-.027-1.674-0.081V87.8a1.5,1.5,0,0,1,1.35.567,3.354,3.354,0,0,1,.378,1.809v8.5a2.315,2.315,0,0,1-.378,1.525,1.765,1.765,0,0,1-1.35.419v0.567q2.916-.108,3.726-0.108,0.862,0,3.348.108v-0.567a1.35,1.35,0,0,1-1.134-.419,2.6,2.6,0,0,1-.324-1.525V91.175a3.28,3.28,0,0,1,.783-2.227,2.413,2.413,0,0,1,1.89-.9,1.436,1.436,0,0,1,1.309.567,3.123,3.123,0,0,1,.365,1.674v8.4a2.6,2.6,0,0,1-.324,1.525,1.35,1.35,0,0,1-1.134.419v0.567q2.7-.108,3.51-0.108,0.863,0,3.564.108v-0.567a1.77,1.77,0,0,1-1.337-.419,2.25,2.25,0,0,1-.391-1.525V91.418a10.1,10.1,0,0,0-.189-2.187,2.969,2.969,0,0,0-.648-1.323,3.752,3.752,0,0,0-2.97-1.053h0Zm12.419,0a5.384,5.384,0,0,0-3.294,1,3.211,3.211,0,0,0-1.35,2.727,3.691,3.691,0,0,0,.446,1.809,5.6,5.6,0,0,0,1.08,1.4q0.635,0.594,1.849,1.566,1.026,0.81,1.539,1.269A4.175,4.175,0,0,1,471,97.682a2.685,2.685,0,0,1,.337,1.35,1.793,1.793,0,0,1-.553,1.444,1.986,1.986,0,0,1-1.337.473q-3.1,0-3.645-4.968h-0.567q0,3.861-.108,5.4h0.567a1.879,1.879,0,0,1,.311-0.77,0.416,0.416,0,0,1,.472-0.175,13.062,13.062,0,0,1,1.242.567,5.286,5.286,0,0,0,2.538.567,6.579,6.579,0,0,0,2.565-.486,4.359,4.359,0,0,0,1.85-1.4,3.415,3.415,0,0,0,.688-2.106,3.749,3.749,0,0,0-.783-2.43,13.966,13.966,0,0,0-2.43-2.214l-0.783-.567a13.632,13.632,0,0,1-1.944-1.606,2.227,2.227,0,0,1-.621-1.579,1.6,1.6,0,0,1,.527-1.269,1.959,1.959,0,0,1,1.336-.459,2.718,2.718,0,0,1,2.39,1.2,6.837,6.837,0,0,1,1.066,2.984h0.567q0-3.375.108-4.752h-0.567a1.643,1.643,0,0,1-.229.742,0.5,0.5,0,0,1-.419.257,0.876,0.876,0,0,1-.486-0.189,4.617,4.617,0,0,0-1.323-.58,6.622,6.622,0,0,0-1.89-.257h0Zm17.361,0a4.763,4.763,0,0,0-2.538.661,4.223,4.223,0,0,0-1.647,1.9V86.936a17.388,17.388,0,0,1-3.942.378q-0.81,0-1.674-.081V87.8a1.509,1.509,0,0,1,1.337.567,3.259,3.259,0,0,1,.391,1.809v13.5a2.147,2.147,0,0,1-.364,1.444,1.665,1.665,0,0,1-1.256.392v0.567q2.592-.108,3.4-0.108t3.807,0.081l0.729,0.027v-0.567a3,3,0,0,1-1.836-.459,1.97,1.97,0,0,1-.594-1.647v-2.7a3.414,3.414,0,0,0,1.229.648,5.244,5.244,0,0,0,1.525.216,5.6,5.6,0,0,0,4.577-2.065,9.159,9.159,0,0,0,1.687-5.926,9.751,9.751,0,0,0-.621-3.7,4.943,4.943,0,0,0-1.714-2.268,4.289,4.289,0,0,0-2.5-.756h0Zm-2.484,13.986a2.167,2.167,0,0,1-1.7-.729V90.365a3.084,3.084,0,0,1,.959-1.728,2.419,2.419,0,0,1,1.633-.621,1.921,1.921,0,0,1,1.742,1.4,12.919,12.919,0,0,1,.607,4.7,12.907,12.907,0,0,1-.756,5.008,2.563,2.563,0,0,1-2.484,1.715h0Zm16.5-13.986a6.551,6.551,0,0,0-4.847,1.769q-1.768,1.769-1.768,5.6t1.768,5.589a7.589,7.589,0,0,0,9.707,0q1.755-1.755,1.755-5.589t-1.755-5.6a6.54,6.54,0,0,0-4.86-1.769h0Zm0,0.54q1.161,0,1.849,1.674a14.409,14.409,0,0,1,.689,5.157,14.557,14.557,0,0,1-.675,5.144q-0.675,1.66-1.863,1.66-1.161,0-1.85-1.674a14.31,14.31,0,0,1-.688-5.13,14.43,14.43,0,0,1,.688-5.144q0.689-1.687,1.85-1.687h0Zm15.8-.54a6.551,6.551,0,0,0-4.847,1.769q-1.768,1.769-1.768,5.6t1.768,5.589a7.589,7.589,0,0,0,9.707,0q1.755-1.755,1.755-5.589t-1.755-5.6a6.543,6.543,0,0,0-4.86-1.769h0Zm0,0.54q1.159,0,1.849,1.674a14.409,14.409,0,0,1,.689,5.157,14.581,14.581,0,0,1-.675,5.144q-0.675,1.66-1.863,1.66-1.161,0-1.85-1.674a14.31,14.31,0,0,1-.688-5.13,14.43,14.43,0,0,1,.688-5.144q0.688-1.687,1.85-1.687h0ZM539.32,99.221l-4.536-7.587,1.728-1.782a7.369,7.369,0,0,1,3.375-2.079v-0.54q-0.918.081-3.159,0.081-1.674,0-3.159-.081v0.54a3.1,3.1,0,0,1,1.512.419,1.12,1.12,0,0,1,.567.986,2.479,2.479,0,0,1-.891,1.647l-2.052,2a1.922,1.922,0,0,1-.688.486,3.3,3.3,0,0,1-.932.216V80.051a17.388,17.388,0,0,1-3.942.378q-0.81,0-1.674-.081v0.567a1.509,1.509,0,0,1,1.337.567,3.251,3.251,0,0,1,.391,1.809v15.39a2.25,2.25,0,0,1-.391,1.525,1.771,1.771,0,0,1-1.337.419v0.567q2.808-.108,3.726-0.108,0.81,0,3.51.108v-0.567a1.588,1.588,0,0,1-1.269-.419,2.443,2.443,0,0,1-.351-1.525V94.037a2.093,2.093,0,0,1,.756.216,1.612,1.612,0,0,1,.567.621l2.673,4.833a1.037,1.037,0,0,1,.135.405,0.423,0.423,0,0,1-.216.378,1.117,1.117,0,0,1-.594.135v0.567q2.592-.108,3.483-0.108,0.675,0,2.835.108v-0.567a1.492,1.492,0,0,1-.7-0.446,9.922,9.922,0,0,1-.7-0.958h0Z" transform="translate(-436.857 -80.078)"/>
</svg>
