<svg
 xmlns="http://www.w3.org/2000/svg"
 xmlns:xlink="http://www.w3.org/1999/xlink"
 width="18px" height="17px">
<path fill-rule="evenodd"  opacity="0.102" fill="rgb(16, 16, 16)"
 d="M2.223,16.310 L2.257,16.310 C3.050,15.867 3.879,15.138 4.743,14.123 C5.605,13.108 6.329,11.883 6.912,10.448 C7.495,9.013 7.787,7.478 7.787,5.845 C7.787,4.842 7.613,3.897 7.263,3.010 C6.912,2.124 6.428,1.406 5.810,0.858 C5.192,0.310 4.498,0.035 3.727,0.035 C2.958,0.035 2.310,0.286 1.785,0.788 C1.260,1.290 0.997,1.914 0.997,2.660 C0.997,3.197 1.079,3.646 1.243,4.008 C1.405,4.370 1.662,4.784 2.013,5.250 C2.409,5.764 2.712,6.254 2.922,6.720 C3.132,7.187 3.238,7.782 3.238,8.505 C3.238,9.952 2.986,11.177 2.485,12.180 C1.983,13.183 1.440,13.965 0.858,14.525 L0.858,15.085 L2.223,16.310 ZM12.268,16.310 L12.303,16.310 C13.095,15.867 13.924,15.138 14.787,14.123 C15.650,13.108 16.374,11.883 16.958,10.448 C17.540,9.013 17.833,7.478 17.833,5.845 C17.833,4.842 17.658,3.891 17.307,2.993 C16.958,2.095 16.467,1.377 15.837,0.840 C15.207,0.304 14.508,0.035 13.738,0.035 C12.990,0.035 12.355,0.286 11.830,0.788 C11.305,1.290 11.043,1.914 11.043,2.660 C11.043,3.197 11.124,3.646 11.288,4.008 C11.451,4.370 11.708,4.784 12.058,5.250 C12.454,5.764 12.758,6.254 12.968,6.720 C13.178,7.187 13.282,7.782 13.282,8.505 C13.282,9.952 13.032,11.177 12.530,12.180 C12.028,13.183 11.486,13.965 10.903,14.525 L10.903,15.085 L12.268,16.310 Z"/>
</svg>
