<svg
 xmlns="http://www.w3.org/2000/svg"
 xmlns:xlink="http://www.w3.org/1999/xlink"
 width="18px" height="18px">
<path fill-rule="evenodd"  opacity="0.102" fill="rgb(16, 16, 16)"
 d="M1.824,17.065 L1.859,17.065 C2.652,16.645 3.480,15.928 4.344,14.913 C5.207,13.898 5.930,12.667 6.514,11.220 C7.097,9.774 7.389,8.234 7.389,6.600 C7.389,5.597 7.214,4.652 6.864,3.765 C6.514,2.879 6.029,2.167 5.411,1.630 C4.793,1.094 4.099,0.825 3.329,0.825 C2.559,0.825 1.911,1.076 1.386,1.578 C0.861,2.080 0.599,2.704 0.599,3.450 C0.599,3.987 0.686,4.436 0.861,4.798 C1.036,5.160 1.299,5.574 1.649,6.040 C2.045,6.530 2.343,6.991 2.541,7.423 C2.739,7.855 2.839,8.420 2.839,9.120 C2.839,10.567 2.582,11.827 2.069,12.900 C1.555,13.974 1.019,14.779 0.459,15.315 L0.459,15.875 L1.824,17.065 ZM11.869,17.065 L11.904,17.065 C12.697,16.645 13.525,15.928 14.389,14.913 C15.252,13.898 15.975,12.667 16.559,11.220 C17.142,9.774 17.434,8.234 17.434,6.600 C17.434,5.597 17.259,4.652 16.909,3.765 C16.559,2.879 16.069,2.167 15.439,1.630 C14.809,1.094 14.109,0.825 13.339,0.825 C12.592,0.825 11.956,1.076 11.431,1.578 C10.906,2.080 10.644,2.704 10.644,3.450 C10.644,3.987 10.731,4.436 10.906,4.798 C11.081,5.160 11.344,5.574 11.694,6.040 C12.090,6.530 12.388,6.991 12.586,7.423 C12.784,7.855 12.884,8.420 12.884,9.120 C12.884,10.567 12.627,11.827 12.114,12.900 C11.600,13.974 11.064,14.779 10.504,15.315 L10.504,15.875 L11.869,17.065 Z"/>
</svg>
